<svg width="122" height="117" viewBox="0 0 122 117" fill="none" xmlns="http://www.w3.org/2000/svg">
<path d="M106.581 51.7967C107.462 50.9805 108.494 50.3456 109.62 49.9283C110.745 49.5111 111.942 49.3196 113.142 49.3649C114.341 49.4102 115.52 49.6913 116.611 50.1922C117.702 50.6931 118.684 51.4039 119.5 52.2842C120.316 53.1645 120.951 54.1969 121.368 55.3225C121.786 56.4481 121.977 57.6449 121.932 58.8445C121.887 60.0442 121.605 61.2231 121.105 62.3141C120.604 63.4051 119.893 64.3867 119.012 65.203L67.2156 113.953C65.5254 115.521 63.3053 116.392 61 116.392C58.6948 116.392 56.4746 115.521 54.7844 113.953L2.98751 65.203C1.20973 63.5545 0.159624 61.2673 0.0682 58.8445C-0.0232239 56.4218 0.851525 54.062 2.50001 52.2842C4.1485 50.5064 6.43569 49.4563 8.85842 49.3649C11.2812 49.2735 13.641 50.1482 15.4188 51.7967L61 94.7698L106.581 51.7967ZM106.581 3.04671C107.462 2.23046 108.494 1.59559 109.62 1.17834C110.745 0.761088 111.942 0.569632 113.142 0.614901C114.341 0.660169 115.52 0.941276 116.611 1.44217C117.702 1.94307 118.684 2.65394 119.5 3.53421C120.316 4.41448 120.951 5.4469 121.368 6.57252C121.786 7.69815 121.977 8.89493 121.932 10.0945C121.887 11.2942 121.605 12.4731 121.105 13.5641C120.604 14.6551 119.893 15.6367 119.012 16.453L67.2156 65.203C65.5254 66.7705 63.3053 67.6416 61 67.6416C58.6948 67.6416 56.4746 66.7705 54.7844 65.203L2.98751 16.453C2.10724 15.6367 1.39637 14.6551 0.895472 13.5641C0.394576 12.4731 0.113469 11.2942 0.0682 10.0945C0.0229315 8.89493 0.214387 7.69815 0.631638 6.57252C1.04889 5.4469 1.68376 4.41448 2.50001 3.53421C3.31626 2.65394 4.29789 1.94307 5.38887 1.44217C6.47985 0.941276 7.6588 0.660169 8.85842 0.614901C10.058 0.569632 11.2548 0.761088 12.3804 1.17834C13.5061 1.59559 14.5385 2.23046 15.4188 3.04671L61 46.032L106.581 3.04671Z" fill="white"/>
</svg>
